<svg xmlns="http://www.w3.org/2000/svg" width="47.773" height="47.773" viewBox="0 0 47.773 47.773"><defs><style>.a{fill:none;}.b{fill:#fff;}</style></defs><path class="a" d="M0,0H47.773V47.773H0Z"/><path class="b" d="M36.427,23.856a15.512,15.512,0,0,0,.139-1.951,15.513,15.513,0,0,0-.139-1.951l4.2-3.284a1,1,0,0,0,.239-1.274L36.885,8.509a.994.994,0,0,0-.876-.5.93.93,0,0,0-.338.06l-4.956,1.991A14.543,14.543,0,0,0,27.35,8.111l-.756-5.275A.971.971,0,0,0,25.619,2H17.656a.971.971,0,0,0-.975.836l-.756,5.275a15.293,15.293,0,0,0-3.364,1.951L7.6,8.071a1.127,1.127,0,0,0-.358-.06.986.986,0,0,0-.856.5L2.409,15.4a.981.981,0,0,0,.239,1.274l4.2,3.284a15.786,15.786,0,0,0-.139,1.951,15.786,15.786,0,0,0,.139,1.951l-4.2,3.284a1,1,0,0,0-.239,1.274L6.39,35.3a.994.994,0,0,0,.876.5.93.93,0,0,0,.338-.06l4.956-1.991A14.543,14.543,0,0,0,15.925,35.7l.756,5.275a.971.971,0,0,0,.975.836h7.962a.971.971,0,0,0,.975-.836L27.35,35.7a15.293,15.293,0,0,0,3.364-1.951l4.956,1.991a1.127,1.127,0,0,0,.358.06.986.986,0,0,0,.856-.5l3.981-6.887a1,1,0,0,0-.239-1.274Zm-3.941-3.4a10.635,10.635,0,0,1,.1,1.453c0,.418-.04.856-.1,1.453l-.279,2.249L33.979,27l2.15,1.672-1.393,2.409-2.528-1.015-2.07-.836-1.791,1.354a11.658,11.658,0,0,1-2.488,1.453l-2.11.856-.318,2.249-.4,2.687H20.244l-.378-2.687-.318-2.249-2.11-.856a11.294,11.294,0,0,1-2.448-1.413l-1.811-1.393-2.11.856L8.54,31.1,7.146,28.693,9.3,27.021l1.772-1.393-.279-2.249c-.06-.617-.1-1.075-.1-1.473s.04-.856.1-1.453l.279-2.249L9.3,16.81l-2.15-1.672L8.54,12.729l2.528,1.015,2.07.836,1.791-1.354a11.658,11.658,0,0,1,2.488-1.453l2.11-.856.318-2.249.4-2.687h2.767l.378,2.687.318,2.249,2.11.856a11.294,11.294,0,0,1,2.448,1.413l1.811,1.393,2.11-.856,2.528-1.015,1.393,2.409-2.13,1.692L32.207,18.2l.279,2.249ZM21.637,13.943A7.962,7.962,0,1,0,29.6,21.906,7.96,7.96,0,0,0,21.637,13.943Zm0,11.943a3.981,3.981,0,1,1,3.981-3.981A3.993,3.993,0,0,1,21.637,25.887Z" transform="translate(2.249 1.981)"/></svg>