<svg xmlns="http://www.w3.org/2000/svg" width="47.773" height="47.773" viewBox="0 0 47.773 47.773"><defs><style>.a{fill:none;}.b{fill:#f4d03f;}</style></defs><path class="a" d="M0,0H47.773V47.773H0Z"/><path class="b" d="M4,34.849H35.849V38.83H4ZM35.849,3H4V22.906a7.96,7.96,0,0,0,7.962,7.962H23.906a7.96,7.96,0,0,0,7.962-7.962V16.934h3.981a3.98,3.98,0,0,0,3.981-3.981V6.981A3.967,3.967,0,0,0,35.849,3ZM27.887,22.906a3.993,3.993,0,0,1-3.981,3.981H11.962a3.993,3.993,0,0,1-3.981-3.981V6.981H27.887Zm7.962-9.953H31.868V6.981h3.981Z" transform="translate(3.962 2.972)"/></svg>