<svg xmlns="http://www.w3.org/2000/svg" width="47.773" height="47.773" viewBox="0 0 47.773 47.773"><defs><style>.a{fill:none;}.b{fill:#fff;}</style></defs><path class="a" d="M0,0H47.773V47.773H0Z"/><path class="b" d="M34.849,3H6.981A3.993,3.993,0,0,0,3,6.981V34.849A3.993,3.993,0,0,0,6.981,38.83H34.849a3.993,3.993,0,0,0,3.981-3.981V6.981A3.993,3.993,0,0,0,34.849,3Zm0,31.849H6.981V6.981H34.849ZM10.962,16.934h3.981V30.868H10.962Zm7.962-5.972h3.981V30.868H18.924Zm7.962,11.943h3.981v7.962H26.887Z" transform="translate(2.972 2.972)"/></svg>